<svg xmlns="http://www.w3.org/2000/svg" viewBox="0 0 24 24" id="edit">
  <g>
    <path d="M2 13a1 1 0 010-2H6a1 1 0 010 2zM11 13a1 1 0 010-2H22a1 1 0 010 2zM2 6A1 1 0 012 4H12a1 1 0 010 2zM17 6a1 1 0 010-2h5a1 1 0 010 2zM2 20a1 1 0 010-2H12a1 1 0 010 2zM17 20a1 1 0 010-2h5a1 1 0 010 2z"></path>
    <circle cx="8.5" cy="12" r="3.25" fill="#fff"></circle>
    <circle cx="14.5" cy="5" r="3.25" fill="#0bf"></circle>
    <circle cx="14.5" cy="19" r="3.25" fill="#0bf"></circle>
    <path d="M8.5 15.25A3.25 3.25 0 1111.75 12 3.254 3.254 0 018.5 15.25zm0-5A1.75 1.75 0 1010.25 12 1.752 1.752 0 008.5 10.25zM14.5 8.25A3.25 3.25 0 1117.75 5 3.254 3.254 0 0114.5 8.25zm0-5A1.75 1.75 0 1016.25 5 1.752 1.752 0 0014.5 3.25zM14.5 22.25A3.25 3.25 0 1117.75 19 3.254 3.254 0 0114.5 22.25zm0-5A1.75 1.75 0 1016.25 19 1.752 1.752 0 0014.5 17.25z"></path>
  </g>
</svg>
